name Walk4.mot
datacolumns 19
datarows 15
range 2.06500000 2.13500000
endheader

                time	   L_ground_force_vx	   L_ground_force_vy	   L_ground_force_vz	   L_ground_force_px	   L_ground_force_py	   L_ground_force_pz	   R_ground_force_vx	   R_ground_force_vy	   R_ground_force_vz	   R_ground_force_px	   R_ground_force_py	   R_ground_force_pz	   L_ground_torque_x	   L_ground_torque_y	   L_ground_torque_z	   R_ground_torque_x	   R_ground_torque_y	   R_ground_torque_z	
          2.06500000	         20.02738749	        650.53950760	         37.04963885	         -0.44394339	          0.00000000	         -0.07284112	         -0.03864027	          0.33156752	          0.04008702	          0.00004473	          0.00000000	          0.00005591	          0.00000000	          0.35932953	          0.00000000	          0.00000000	         -0.01081615	          0.00000000	
          2.07000000	         21.75214828	        658.83045964	         37.58062546	         -0.44194386	          0.00000000	         -0.07311735	         -0.05287677	          0.39365331	          0.04500717	          0.00005239	          0.00000000	          0.00006098	          0.00000000	          0.37103013	          0.00000000	          0.00000000	         -0.01103442	          0.00000000	
          2.07500000	         23.50017236	        667.13966042	         38.14436198	         -0.43991321	          0.00000000	         -0.07339202	         -0.06855568	          0.44192013	          0.04712891	          0.00005786	          0.00000000	          0.00006137	          0.00000000	          0.38293541	          0.00000000	          0.00000000	         -0.01001393	          0.00000000	
          2.08000000	         25.26228668	        675.38219327	         38.73195227	         -0.43784761	          0.00000000	         -0.07366672	         -0.08455021	          0.46268526	          0.04462518	          0.00005927	          0.00000000	          0.00005442	          0.00000000	          0.39600036	          0.00000000	          0.00000000	         -0.00718760	          0.00000000	
          2.08500000	         27.03046945	        683.48110178	         39.33180521	         -0.43574469	          0.00000000	         -0.07394195	         -0.09906435	          0.43800391	          0.03521739	          0.00005414	          0.00000000	          0.00003686	          0.00000000	          0.41116359	          0.00000000	          0.00000000	         -0.00189385	          0.00000000	
          2.09000000	         28.79822037	        691.36631073	         39.93019545	         -0.43360352	          0.00000000	         -0.07421720	         -0.10947998	          0.34549812	          0.01620378	          0.00003948	          0.00000000	          0.00000493	          0.00000000	          0.42944777	          0.00000000	          0.00000000	          0.00659468	          0.00000000	
          2.09500000	         30.55978337	        698.97601730	         40.51218079	         -0.43142470	          0.00000000	         -0.07449133	         -0.11221996	          0.15863685	         -0.01544405	          0.00001174	          0.00000000	         -0.00004546	          0.00000000	          0.45184194	          0.00000000	          0.00000000	          0.01901821	          0.00000000	
          2.10000000	         32.31061351	        706.26161103	         41.06275402	         -0.42920984	          0.00000000	         -0.07476278	         -0.10265274	         -0.15231520	         -0.06289034	         -0.00003295	          0.00000000	         -0.00011844	          0.00000000	          0.47929577	          0.00000000	          0.00000000	          0.03604574	          0.00000000	
          2.10500000	         34.04864663	        713.18734610	         41.56875817	         -0.42696185	          0.00000000	         -0.07503051	         -0.07507386	         -0.61842277	         -0.12912098	         -0.00009859	          0.00000000	         -0.00021763	          0.00000000	          0.51270885	          0.00000000	          0.00000000	          0.05815267	          0.00000000	
          2.11000000	         35.77521783	        719.72813675	         42.02087951	         -0.42468446	          0.00000000	         -0.07529347	         -0.02280920	         -1.26899257	         -0.21647545	         -0.00018879	          0.00000000	         -0.00034547	          0.00000000	          0.55287066	          0.00000000	          0.00000000	          0.08545390	          0.00000000	
          2.11500000	         37.49510497	        725.86814522	         42.41489453	         -0.42238251	          0.00000000	         -0.07555057	          0.06150427	         -2.12697550	         -0.32599674	         -0.00030615	          0.00000000	         -0.00050221	          0.00000000	          0.60035394	          0.00000000	          0.00000000	          0.11748803	          0.00000000	
          2.12000000	         39.21580248	        731.59405653	         42.75213566	         -0.42006233	          0.00000000	         -0.07580097	          0.18539578	         -3.20258086	         -0.45657746	         -0.00045142	          0.00000000	         -0.00068469	          0.00000000	          0.65524223	          0.00000000	          0.00000000	          0.15295183	          0.00000000	
          2.12500000	         40.94578585	        736.88930043	         43.03923036	         -0.41773144	          0.00000000	         -0.07604384	          0.35572519	         -4.48488990	         -0.60389357	         -0.00062226	          0.00000000	         -0.00088481	          0.00000000	          0.71702883	          0.00000000	          0.00000000	          0.18939010	          0.00000000	
          2.13000000	         42.69366894	        741.72758037	         43.28703742	         -0.41539753	          0.00000000	         -0.07627815	          0.57746250	         -5.93138372	         -0.75913829	         -0.00081193	          0.00000000	         -0.00108774	          0.00000000	          0.78489433	          0.00000000	          0.00000000	          0.22285408	          0.00000000	
          2.13500000	         44.46773097	        746.06777976	         43.50840724	         -0.41306769	          0.00000000	         -0.07650205	          0.85201783	         -7.45551068	         -0.90760068	         -0.00100757	          0.00000000	         -0.00127005	          0.00000000	          0.85779463	          0.00000000	          0.00000000	          0.24755297	          0.00000000	
